<svg width="49" height="54" viewBox="0 0 49 54" fill="none" xmlns="http://www.w3.org/2000/svg">
<path d="M45.0515 29.2878H4.37797C2.21106 29.2878 0.455078 30.7444 0.455078 32.5419V38.1057C0.455078 39.9031 2.21106 41.3597 4.37797 41.3597H23.339V46.3625C21.6137 46.8409 20.363 48.179 20.363 49.771C20.363 51.7654 22.3105 53.3807 24.7147 53.3807C27.119 53.3807 29.0664 51.7654 29.0664 49.771C29.0664 48.179 27.8158 46.8431 26.0904 46.3625V41.3597H45.0515C47.2184 41.3597 48.9744 39.9031 48.9744 38.1057V32.5419C48.9744 30.7444 47.2184 29.2878 45.0515 29.2878ZM9.13036 36.4649H7.39479C6.63421 36.4649 6.0191 35.9547 6.0191 35.3238C6.0191 34.6929 6.63421 34.1826 7.39479 34.1826H9.13036C9.88839 34.1826 10.5061 34.6929 10.5061 35.3238C10.5061 35.9547 9.89095 36.4649 9.13036 36.4649ZM15.5162 36.4649H13.7807C13.0201 36.4649 12.405 35.9547 12.405 35.3238C12.405 34.6929 13.0201 34.1826 13.7807 34.1826H15.5162C16.2768 34.1826 16.8919 34.6929 16.8919 35.3238C16.8919 35.9547 16.2768 36.4649 15.5162 36.4649ZM42.0321 36.4649H20.1665C19.4059 36.4649 18.7908 35.9547 18.7908 35.3238C18.7908 34.6929 19.4059 34.1826 20.1665 34.1826H42.0321C42.7927 34.1826 43.4078 34.6929 43.4078 35.3238C43.4078 35.9547 42.7927 36.4649 42.0321 36.4649Z" fill="white"/>
<path d="M45.0515 14.9337H4.37797C2.21106 14.9337 0.455078 16.3903 0.455078 18.1877V23.7515C0.455078 25.549 2.21106 27.0056 4.37797 27.0056H45.0515C47.2184 27.0056 48.9744 25.549 48.9744 23.7515V18.1877C48.9744 16.3903 47.2184 14.9337 45.0515 14.9337ZM9.13036 22.1108H7.39479C6.63421 22.1108 6.0191 21.6005 6.0191 20.9696C6.0191 20.3387 6.63421 19.8285 7.39479 19.8285H9.13036C9.88839 19.8285 10.5061 20.3387 10.5061 20.9696C10.5061 21.6005 9.89095 22.1108 9.13036 22.1108ZM15.5162 22.1108H13.7807C13.0201 22.1108 12.405 21.6005 12.405 20.9696C12.405 20.3387 13.0201 19.8285 13.7807 19.8285H15.5162C16.2768 19.8285 16.8919 20.3387 16.8919 20.9696C16.8919 21.6005 16.2768 22.1108 15.5162 22.1108ZM42.0321 22.1108H20.1665C19.4059 22.1108 18.7908 21.6005 18.7908 20.9696C18.7908 20.3387 19.4059 19.8285 20.1665 19.8285H42.0321C42.7927 19.8285 43.4078 20.3387 43.4078 20.9696C43.4078 21.6005 42.7927 22.1108 42.0321 22.1108Z" fill="white"/>
<path d="M45.0515 0.581787H4.37797C2.21106 0.581787 0.455078 2.03837 0.455078 3.83581V9.39962C0.455078 11.1971 2.21106 12.6536 4.37797 12.6536H45.0515C47.2184 12.6536 48.9744 11.1971 48.9744 9.39962V3.83581C48.9744 2.03837 47.2184 0.581787 45.0515 0.581787ZM9.13036 7.75884H7.39479C6.63421 7.75884 6.0191 7.24862 6.0191 6.61771C6.0191 5.98681 6.63421 5.47658 7.39479 5.47658H9.13036C9.88839 5.47658 10.5061 5.98681 10.5061 6.61771C10.5061 7.24862 9.89094 7.75884 9.13036 7.75884ZM15.5162 7.75884H13.7807C13.0201 7.75884 12.405 7.24862 12.405 6.61771C12.405 5.98681 13.0201 5.47658 13.7807 5.47658H15.5162C16.2768 5.47658 16.8919 5.98681 16.8919 6.61771C16.8919 7.24862 16.2768 7.75884 15.5162 7.75884ZM42.0321 7.75884H20.1665C19.4059 7.75884 18.7908 7.24862 18.7908 6.61771C18.7908 5.98681 19.4059 5.47658 20.1665 5.47658H42.0321C42.7927 5.47658 43.4078 5.98681 43.4078 6.61771C43.4078 7.24862 42.7927 7.75884 42.0321 7.75884Z" fill="white"/>
<path d="M7.91805 48.6321C7.15746 48.6321 6.54236 49.1423 6.54236 49.7732C6.54236 50.4041 7.15746 50.9143 7.91805 50.9143H18.699C18.5892 50.5502 18.5331 50.1691 18.5331 49.7732C18.5331 49.3773 18.5867 48.9983 18.699 48.6321H7.91805Z" fill="#14A0DE"/>
<path d="M41.5141 48.6321H30.7434C30.8429 48.9962 30.8991 49.3773 30.8991 49.7732C30.8991 50.1691 30.8429 50.5481 30.7434 50.9143H41.5141C42.2747 50.9143 42.8898 50.3978 42.8898 49.7732C42.8898 49.1487 42.2747 48.6321 41.5141 48.6321Z" fill="#14A0DE"/>
</svg>
