<svg width="94" height="79" viewBox="0 0 94 79" fill="none" xmlns="http://www.w3.org/2000/svg">
<path d="M66.627 40.8303C65.8535 40.8303 65.0799 40.8049 64.3345 40.7354V51.5479H6.58218V18.0505C6.58218 17.8575 6.76854 17.6899 6.98302 17.6899H41.2828C41.3109 15.6273 41.6555 13.6375 42.2673 11.7679H5.24957C2.34525 11.7679 0 13.8779 0 16.4909V60.7281C0 63.319 2.34525 65.4511 5.24957 65.4511H27.2886V72.5973H19.3211C17.3485 72.5973 15.7768 74.0366 15.7768 75.786C15.7768 77.5354 17.3485 79 19.3211 79H51.6202C53.5646 79 55.1644 77.5607 55.1644 75.786C55.1644 74.0113 53.5646 72.5973 51.6202 72.5973H43.6527V65.4511H65.6917C68.596 65.4511 70.9413 63.3158 70.9413 60.7281V40.4918C69.5278 40.7069 68.0897 40.8271 66.6235 40.8271L66.627 40.8303ZM8.68834 60.5858C7.4366 60.5858 6.42396 59.6747 6.42396 58.5486C6.42396 57.4224 7.4366 56.5335 8.68834 56.5335C9.94008 56.5335 10.9527 57.4192 10.9527 58.5486C10.9527 59.6779 9.94008 60.5858 8.68834 60.5858ZM15.5377 60.5858C14.286 60.5858 13.298 59.6747 13.298 58.5486C13.298 57.4224 14.2825 56.5335 15.5377 56.5335C16.793 56.5335 17.8021 57.4192 17.8021 58.5486C17.8021 59.6779 16.7895 60.5858 15.5377 60.5858ZM22.3871 60.5858C21.1354 60.5858 20.1474 59.6747 20.1474 58.5486C20.1474 57.4224 21.1319 56.5335 22.3871 56.5335C23.6424 56.5335 24.6515 57.4192 24.6515 58.5486C24.6515 59.6779 23.6389 60.5858 22.3871 60.5858Z" fill="#203A72"/>
<path d="M92.692 36.3192L83.0367 28.3284C85.3152 25.4054 86.6619 21.8529 86.6619 18.0188C86.6619 8.08253 77.6782 0 66.634 0C55.5899 0 46.6062 8.08253 46.6062 18.0188C46.6062 27.9551 55.5899 36.0376 66.634 36.0376C70.8956 36.0376 74.8442 34.8229 78.0931 32.7762L86.9748 41.4629C87.0486 41.5357 87.133 41.6084 87.2139 41.678C88.8594 43.0383 91.4157 42.9434 92.9276 41.4629C94.4395 39.9856 94.334 37.6826 92.6885 36.3224L92.692 36.3192ZM51.9964 18.0188C51.9964 10.7556 58.5645 4.84635 66.634 4.84635C74.7035 4.84635 81.2716 10.7556 81.2716 18.0188C81.2716 25.282 74.7035 31.1881 66.634 31.1881C58.5645 31.1881 51.9964 25.2789 51.9964 18.0188Z" fill="#203A72"/>
<path d="M66.6375 9.01575C61.1207 9.01575 56.6306 13.0523 56.6306 18.0188C56.6306 19.357 57.8366 20.442 59.324 20.442C60.8113 20.442 62.0173 19.357 62.0173 18.0188C62.0173 15.7285 64.0883 13.8653 66.634 13.8653C68.1213 13.8653 69.3273 12.7802 69.3273 11.4421C69.3273 10.104 68.1213 9.01891 66.634 9.01891L66.6375 9.01575Z" fill="#203A72"/>
<path d="M34.1733 45.7429C33.1501 45.7429 32.2324 45.1925 31.8351 44.3447L25.8366 31.5519L24.0082 35.4555C23.6109 36.3033 22.6896 36.8506 21.67 36.8506H14.6658C13.2664 36.8506 12.1272 35.8256 12.1272 34.5666C12.1272 33.3076 13.2664 32.2826 14.6658 32.2826H19.9857L23.4983 24.7853C23.864 24.0008 24.7817 23.4978 25.8366 23.4978C26.8914 23.4978 27.8091 24.0039 28.1748 24.7885L34.1733 37.5845L36.0017 33.6808C36.399 32.833 37.3167 32.2858 38.3399 32.2858H45.3053C46.7047 32.2858 47.844 33.3107 47.844 34.5698C47.844 35.8288 46.7047 36.8537 45.3053 36.8537H40.0241L36.5115 44.351C36.1142 45.1988 35.1965 45.7493 34.1733 45.7493V45.7429Z" fill="#14A0DE"/>
</svg>
